<svg xmlns="http://www.w3.org/2000/svg" viewBox="0 0 640 640"><style>@media (prefers-color-scheme:light){#path{fill:#000}}</style><path fill="#fff500" id="path" d="M539.497 88.803c4.1-2.3 9.1.6 9.1 5.3v317.193c0 27.1-11.8 51.399-30.5 68.198-16.8 15-39.199 24-63.598 23.3-48.4-1.4-87.698-40.9-88.798-89.198-1.2-51.5 40.199-93.598 91.398-93.598 23.4 0 44.799 8.8 60.998 23.3V201.3c0-4.7-5.1-7.6-9.1-5.3L277.303 329.698c-1.9 1.1-3 3.1-3 5.3v212.295c0 50.199-39.999 91.998-90.198 92.698-50.799.7-92.298-40.099-92.698-90.598-.4-49.499 39.3-90.898 88.898-92.298 24.4-.7 46.8 8.2 63.6 23.3V280.698c0-2.2-1.2-4.2-3-5.3l-48.8-28.2c-4.1-2.3-9.1.6-9.1 5.3v128.198c0 2.2-1.2 4.2-3 5.3l-18.5 10.6c-4.1 2.3-9.099-.6-9.099-5.3V210.3c0-2.2 1.2-4.2 3-5.3L508.998.804c4.1-2.3 9.1.6 9.1 5.3v66.899c0 4.7-5.1 7.6-9.1 5.3l-33.5-19.4a6.05 6.05 0 00-6.1 0L207.204 210.3c-4.1 2.3-4.1 8.2 0 10.6l48.799 28.2c1.9 1.1 4.2 1.1 6.1 0L371.9 185.7v70.8l24.4-32.4 24.4 4.2v-70.8z"/></svg>